<?xml version="1.0" encoding="utf-8"?>
<!-- Generator: Adobe Illustrator 25.0.0, SVG Export Plug-In . SVG Version: 6.00 Build 0)  -->
<svg version="1.1" id="Layer_1" xmlns="http://www.w3.org/2000/svg" xmlns:xlink="http://www.w3.org/1999/xlink" x="0px" y="0px"
	 viewBox="0 0 177 100" style="enable-background:new 0 0 177 100;" xml:space="preserve">
<style type="text/css">
	.st0{fill:#394149;}
	.st1{fill-rule:evenodd;clip-rule:evenodd;fill:#394149;}
</style>
<g>
	<path class="st0" d="M143,29.9c0.6-2.4-0.6-4.6-1.8-6.4c-1.3-2-3.5-3.7-6-4.4c0.4,2.2,1.8,4.2,3,6C139.5,27,141.1,28.8,143,29.9z"
		/>
	<path class="st0" d="M36.6,23.5c-1.2,1.8-2.4,4-1.8,6.4c2-1.1,3.5-3,4.8-4.8c1.3-1.8,2.6-3.8,3-6C40.1,19.8,37.9,21.5,36.6,23.5z"
		/>
	<path class="st0" d="M33,34.5c0.4-1.9,0.4-4,0-5.7c-0.4-1.6-0.9-3.8-2.7-4.5c-1.3,2.1-1.8,4.9-1.1,7c0.5,1.5,1.5,3.5,3.6,3.9
		c1.9,0.4,3.7-0.6,5.2-1.4c1.7-0.9,3.3-2.4,4.3-4.1c-1.8-0.9-3.9-0.2-5.4,0.5C35.3,31,33.7,32.6,33,34.5z"/>
	<path class="st0" d="M69.2,26.8v9.5h-3.2v-3.4h-4.9v3.4h-3.2v-9.5h3.2v3.5h4.9v-3.5H69.2z"/>
	<path class="st0" d="M79.9,26.8h3.6l-5.1,6.3v3.1h-3.2v-3.1l-5-6.4h3.7l3,3.8L79.9,26.8z"/>
	<path class="st1" d="M95.7,30.2c0-1.2-0.4-2.1-1-2.6c-0.6-0.5-1.6-0.8-2.9-0.8h-7.3v9.5h3.2v-2.7c0,0,3.7,0,4.2,0
		c1.4,0,2.5-0.3,3.1-1.1C95.5,32,95.7,31.3,95.7,30.2z M92.5,30.3c0,0.3,0,0.5-0.1,0.7c-0.2,0.3-0.6,0.5-1.3,0.5h-3.4v-2.3h3.4
		c0.6,0,1,0.1,1.2,0.4C92.4,29.7,92.5,30,92.5,30.3z"/>
	<path class="st0" d="M107,33.9v2.4H97v-9.5h9.9v2.4h-6.7v1.2h6.5v2.3h-6.5v1.2H107z"/>
	<path class="st1" d="M119.8,29.7c0-0.9-0.2-1.5-0.6-1.9c-0.6-0.6-1.5-1-3-1h-7.5v9.5h3.2V33h2.9l2.4,3.3h3.6l-2.9-3.9
		c0.6-0.1,1.2-0.5,1.5-0.9C119.6,31.1,119.8,30.4,119.8,29.7z M116.6,30c0,0.2,0,0.3-0.1,0.5c-0.1,0.2-0.4,0.3-1,0.3h-3.8v-1.7h3.7
		c0.5,0,0.8,0.1,1,0.4C116.6,29.6,116.6,29.8,116.6,30z"/>
	<path class="st0" d="M105.3,48.2c0-2.2-1.4-3.3-4.6-3.7c-0.5-0.1-2.1-0.2-3-0.3c-2.5-0.3-3.2-0.4-3.2-1c0-0.6,0.6-0.8,2.8-0.8
		c1.6,0,2.5,0.3,2.8,0.8c0.2,0.2,0.2,0.4,0.3,0.6h4.6c0-0.4-0.2-0.9-0.5-1.4c-0.8-1.6-2.8-2.8-7-2.8c-4.8,0-7.4,1.7-7.4,3.9
		c0,2.1,1.5,3.4,5.5,3.7c0.5,0,1.5,0.1,2.3,0.2l0,0l0,0l0.4,0c2.1,0.2,2.7,0.4,2.7,1c0,0.6-0.6,0.9-2.9,0.9c-1.8,0-2.9-0.3-3.2-0.7
		c-0.2-0.2-0.3-0.5-0.3-0.7h-4.6c0,0.3,0.1,0.8,0.3,1.2c0.8,1.7,2.8,3.1,7.5,3.1C102.7,52.2,105.3,50.8,105.3,48.2z"/>
	<path class="st1" d="M73.7,48.5c0,0.9-0.2,1.7-0.7,2.2c-0.7,0.9-2.1,1.3-3.8,1.3h-11V39.6h10.7c1.7,0,2.8,0.4,3.4,1
		c0.5,0.5,0.8,1.2,0.8,2.1c0,0.8-0.2,1.5-0.6,2c-0.3,0.4-0.9,0.7-1.5,0.8c0.9,0.1,1.7,0.6,2.2,1.2C73.5,47.1,73.7,47.8,73.7,48.5z
		 M68.4,44.2c0.2-0.2,0.3-0.4,0.3-0.7c0-0.3-0.1-0.6-0.3-0.7c-0.2-0.2-0.6-0.3-1.2-0.3h-4.8v2h4.9C67.8,44.5,68.2,44.4,68.4,44.2z
		 M67.7,49.2c0.7,0,1.2-0.1,1.4-0.3c0.2-0.2,0.2-0.4,0.2-0.7c0-0.3-0.1-0.6-0.3-0.7c-0.2-0.2-0.6-0.3-1.3-0.3h-5.4v2.1H67.7z"/>
	<path class="st0" d="M88.6,49V52H75.5V39.6h13v3.1h-8.8v1.6h8.5v3h-8.5V49H88.6z"/>
	<path class="st0" d="M120.7,39.6v3.1h-5.2V52h-4.3v-9.3h-5.2v-3.1H120.7z"/>
	<path class="st0" d="M120.3,63L120.3,63l-0.7,0l0-0.7c-0.2,0.3-0.7,0.7-1.6,0.7c-1.6,0-2.4-1-2.4-3.4c0-1.9,0.5-3.4,2.4-3.4
		c1.7,0,2.2,1.1,2.2,2.3h-0.8c0-0.8-0.4-1.5-1.4-1.5c-1.2,0-1.6,0.7-1.6,2.7c0,2,0.4,2.7,1.6,2.7c0.8,0,1.3-0.4,1.4-1v-1.3h-1.7
		v-0.8h2.5v2C120.3,62,120.3,62.8,120.3,63L120.3,63L120.3,63z"/>
	<path class="st1" d="M60.7,61.3h-2.4L57.8,63h-0.9l2.1-6.7h1.1l2,6.7h-0.9L60.7,61.3z M58.5,60.6h1.9c0,0-0.8-2.7-0.8-2.8l0-0.2
		l-0.1-0.4c0,0-0.1,0.6-0.1,0.6C59.4,57.9,58.5,60.6,58.5,60.6z"/>
	<path class="st0" d="M68.5,56.3h0.8L67.8,63h-1c0,0-1.1-5.2-1.1-5.5c0,0.2-1.2,5.5-1.2,5.5h-1l-1.6-6.7h0.9c0,0,1.2,5.3,1.2,5.5
		c0-0.2,1.1-5.5,1.1-5.5h1c0,0,1.1,5.3,1.1,5.5C67.3,61.6,68.5,56.3,68.5,56.3z"/>
	<path class="st1" d="M70.5,61.3h2.4l0.5,1.7h0.9l-2-6.7h-1.1L69,63h0.9L70.5,61.3z M72.6,60.6h-1.9c0,0,0.8-2.7,0.9-2.8
		c0,0,0.1-0.6,0.1-0.6l0.1,0.3l0.1,0.3C71.8,57.8,72.6,60.6,72.6,60.6z"/>
	<path class="st1" d="M77.5,56.3c1,0,1.6,0.5,1.6,1.9c0,1.2-0.5,1.6-0.9,1.7l1.3,3.1h-0.9l-1.2-2.9h-1.6V63h-0.8v-6.7H77.5z
		 M77.4,59.3c0.7,0,0.8-0.3,0.8-1.1c0-0.9-0.3-1.1-0.9-1.1h-1.6v2.2H77.4z"/>
	<path class="st1" d="M84.3,62.3c0.3-0.5,0.5-1.1,0.5-2.7c0-1.4-0.1-2-0.4-2.5c-0.3-0.5-1-0.7-1.8-0.7h-2.3V63h2.3
		C83.4,63,83.9,62.7,84.3,62.3z M83.5,61.8c-0.2,0.3-0.7,0.4-1.2,0.4h-1.3v-5.1h1.3c0.5,0,1,0.1,1.2,0.5c0.2,0.4,0.3,0.9,0.3,2
		C83.8,60.8,83.8,61.5,83.5,61.8z"/>
	<path class="st0" d="M93.7,56.3h0.8L92.9,63h-1c0,0-1.1-5.2-1.1-5.5c0,0.2-1.2,5.5-1.2,5.5h-1L87,56.3h0.9c0,0,1.2,5.3,1.2,5.5
		c0-0.2,1.1-5.5,1.1-5.5h1c0,0,1.1,5.3,1.1,5.5C92.4,61.6,93.7,56.3,93.7,56.3z"/>
	<path class="st0" d="M96,63v-6.7h-0.9V63H96z"/>
	<path class="st0" d="M101.5,56.3V63h-1l-2.5-5.2V63h-0.8v-6.7h1l2.4,5.1v-5.1H101.5z"/>
	<path class="st0" d="M107.1,63v-6.7h-0.8v5.1l-2.4-5.1h-1V63h0.8v-5.2l2.5,5.2H107.1z"/>
	<path class="st0" d="M109.1,56.3V63h-0.9v-6.7H109.1z"/>
	<path class="st0" d="M114.7,63v-6.7h-0.8v5.1l-2.4-5.1h-1V63h0.8v-5.2l2.5,5.2H114.7z"/>
	<path class="st0" d="M67.9,76.3l-1-3l-1,3h-3.1l2.5,1.9l-1,3l2.5-1.9l2.5,1.9l-1-3l2.5-1.9H67.9z"/>
	<path class="st0" d="M78.1,73.3l1,3h3.2l-2.6,1.9l1,3l-2.6-1.9l-2.6,1.9l1-3l-2.6-1.9h3.2L78.1,73.3z"/>
	<path class="st0" d="M90.3,76.3l-1-3l-1,3h-3.2l2.6,1.9l-1,3l2.6-1.9l2.6,1.9l-1-3l2.6-1.9H90.3z"/>
	<path class="st0" d="M100.4,73.3l1,3h3.2l-2.6,1.9l1,3l-2.6-1.9l-2.6,1.9l1-3l-2.6-1.9h3.2L100.4,73.3z"/>
	<path class="st0" d="M112.6,76.3l-1-3l-1,3h-3.1l2.5,1.9l-1,3l2.5-1.9l2.5,1.9l-1-3l2.5-1.9H112.6z"/>
	<path class="st0" d="M31.7,42.7c-2.1,0-3.5-1.7-4.4-3.1c-1.2-1.8-1.4-4.6-0.7-6.9c1.9,0.4,3,2.4,3.7,3.8c0.8,1.6,1.4,3.6,1.4,5.5
		c0.2-1.9,1.3-3.8,2.8-4.8c1.4-1,3.2-2,5.1-1.5c-0.5,1.8-1.8,3.5-3.1,4.7C35.2,41.5,33.6,42.8,31.7,42.7z"/>
	<path class="st0" d="M32.3,50.2c-1.9,0.3-3.8-0.9-5-2.2c-1.6-1.8-2.5-4.2-2.3-6.6c2,0.1,3.5,1.8,4.6,3c1.2,1.4,2.2,3.2,2.6,5.1
		c-0.2-1.9,0.4-3.9,1.6-5.2c1.1-1.2,2.7-2.5,4.7-2.3c0,1.9-1,3.7-2,5.1C35.6,48.4,34.2,50,32.3,50.2z"/>
	<path class="st0" d="M34.9,57.9c-2.3,0.9-4.4-0.3-6.2-1.4c-2.2-1.4-3.8-4.2-4.2-6.9c2.2-0.3,4.3,1.2,5.8,2.5
		c1.6,1.5,3.2,3.1,4.3,5.1c-0.7-1.9-0.5-4.1,0.4-6c0.9-1.8,2.6-3.2,4.6-3.4c0.4,2-0.2,4.1-0.9,5.9C37.9,55.4,36.8,57.3,34.9,57.9z"
		/>
	<path class="st0" d="M39.5,65.2c1.7-1,2.4-3.2,2.7-5.1c0.3-2,0.3-4.2-0.5-6.2c-2,0.6-3.4,2.4-3.9,4.4c-0.5,2.1-0.1,4.3,1.1,6.1
		c-1.6-1.8-3.6-3.3-5.6-4.3c-1.9-1-4.3-2.2-6.6-1.5c1.1,2.7,3.5,5.2,6.1,6.3C34.9,65.7,37.3,66.5,39.5,65.2z"/>
	<path class="st0" d="M46.4,71.8c1.5-1.5,1.5-4,1.3-5.9c-0.3-2.2-0.9-4.5-2.3-6.3c-2,1-2.9,3.2-2.8,5.3c0.1,2.3,1.3,4.7,3.1,6.3
		c-2.2-1.6-4.8-2.7-7.3-3.4l-0.1,0c-2.2-0.6-4.9-1.4-7.2-0.2c1.8,2.8,5.2,4.8,8.3,5.4C41.6,73.4,44.6,73.8,46.4,71.8z"/>
	<path class="st0" d="M56.5,77.3c1.1-2.1,0-4.6-0.9-6.5c-1-2.2-2.5-4.4-4.5-6c-2,1.7-1.8,4.1-1.2,6.2c0.7,2.5,3.1,4.6,5.6,5.8
		c-2.9-1.1-6-1.7-9-1.9l-0.3,0c-2.4-0.2-5.5-0.4-7.4,1.4c2.9,2.5,7,3.9,10.6,3.8C51.8,80.1,55.1,79.8,56.5,77.3z"/>
	<path class="st0" d="M140.9,30.2c1.7,0.8,3.2,2.4,3.9,4.3c-0.4-1.9-0.4-4,0-5.7c0.4-1.6,0.9-3.8,2.7-4.5c1.3,2.1,1.8,4.9,1.1,7
		c-0.5,1.5-1.5,3.5-3.6,3.9c-1.9,0.4-3.7-0.6-5.2-1.4c-1.7-0.9-3.3-2.4-4.3-4.1C137.2,28.8,139.3,29.5,140.9,30.2z"/>
	<path class="st0" d="M143.3,37.2c1.4,1,2.5,2.9,2.8,4.8c0-1.9,0.5-3.9,1.4-5.5c0.8-1.5,1.8-3.4,3.7-3.8c0.7,2.3,0.5,5.1-0.7,6.9
		c-0.9,1.4-2.3,3.1-4.4,3.1c-1.9,0.1-3.5-1.2-4.8-2.3c-1.4-1.2-2.6-2.8-3.1-4.7C140.1,35.2,141.9,36.2,143.3,37.2z"/>
	<path class="st0" d="M144,44.4c1.2,1.3,1.8,3.3,1.6,5.2c0.5-1.9,1.4-3.7,2.6-5.1c1.1-1.3,2.6-3,4.6-3c0.2,2.4-0.7,4.8-2.3,6.6
		c-1.2,1.4-3.1,2.6-5,2.2c-1.8-0.2-3.3-1.8-4.2-3.1c-1-1.4-1.9-3.2-2-5.1C141.3,41.9,142.9,43.2,144,44.4z"/>
	<path class="st0" d="M142.8,51.3c0.9,1.9,1.1,4.1,0.4,6c1.1-2,2.6-3.6,4.3-5.1c1.5-1.4,3.6-2.8,5.8-2.5c-0.4,2.7-2.1,5.5-4.2,6.9
		c-1.8,1.1-3.9,2.3-6.2,1.4c-1.8-0.7-3-2.5-3.7-4.2c-0.8-1.8-1.3-3.9-0.9-5.9C140.2,48,141.9,49.5,142.8,51.3z"/>
	<path class="st0" d="M140,58.3c0.5,2.1,0.1,4.3-1.1,6.1c1.6-1.8,3.6-3.3,5.6-4.3c1.9-1,4.3-2.2,6.6-1.5c-1.1,2.7-3.5,5.2-6.1,6.3
		c-2,0.8-4.5,1.6-6.7,0.3c-1.7-1-2.4-3.2-2.7-5.1c-0.3-2-0.3-4.2,0.5-6.2C138.1,54.5,139.5,56.3,140,58.3z"/>
	<path class="st0" d="M130,65.9c-0.3,1.9-0.3,4.4,1.3,5.9c1.9,1.9,4.8,1.6,7.1,1.1c3-0.6,6.4-2.6,8.3-5.4c-2.2-1.2-5-0.4-7.2,0.2
		l-0.1,0c-2.5,0.7-5.1,1.8-7.3,3.4c1.8-1.6,3-3.9,3.1-6.3c0.1-2.1-0.9-4.3-2.8-5.3C131,61.4,130.3,63.7,130,65.9z"/>
	<path class="st0" d="M121.2,77.3c1.4,2.5,4.7,2.8,7.1,2.8c3.6,0.1,7.7-1.3,10.6-3.8c-1.9-1.8-5-1.6-7.4-1.4l-0.3,0
		c-3,0.2-6.1,0.8-9,1.9c2.5-1.2,4.9-3.3,5.6-5.8c0.6-2.1,0.8-4.5-1.2-6.2c-2,1.6-3.5,3.8-4.5,6C121.2,72.7,120.1,75.2,121.2,77.3
		L121.2,77.3z"/>
</g>
</svg>
