<?xml version="1.0" encoding="utf-8"?>
<!-- Generator: Adobe Illustrator 25.0.0, SVG Export Plug-In . SVG Version: 6.00 Build 0)  -->
<svg version="1.1" id="Layer_1" xmlns="http://www.w3.org/2000/svg" xmlns:xlink="http://www.w3.org/1999/xlink" x="0px" y="0px"
	 viewBox="0 0 177 100" style="enable-background:new 0 0 177 100;" xml:space="preserve">
<style type="text/css">
	.st0{fill:#68DBFF;}
	.st1{fill:#FF7917;}
	.st2{fill:#5D2C02;}
</style>
<path class="st0" d="M104.2,50c0,18.8-15.3,34.1-34.1,34.1S36,68.8,36,50s15.3-34.1,34.1-34.1S104.2,31.2,104.2,50z"/>
<path class="st1" d="M141,50c0,18.8-15.1,34.1-33.8,34.1c-18.7,0-33.8-15.3-33.8-34.1s15.1-34.1,33.8-34.1
	C125.9,15.9,141,31.2,141,50z"/>
<path class="st2" d="M88.8,78.6c9.3-6.1,15.5-16.6,15.5-28.6s-6.2-22.5-15.5-28.6C79.5,27.5,73.4,38,73.4,50S79.5,72.5,88.8,78.6z"
	/>
</svg>
